<?xml version="1.0" encoding="UTF-8"?>
<svg id="_レイヤー_1" data-name="レイヤー_1" xmlns="http://www.w3.org/2000/svg" height="60" xmlns:xlink="http://www.w3.org/1999/xlink" viewBox="0 0 96 30">
  <defs>
    <linearGradient id="outer_gradation" x1="15.00001" y1="30" x2="15.00001" y2="0" gradientUnits="userSpaceOnUse">
      <stop offset=".09423" stop-color="#0070fb"/>
      <stop offset=".96712" stop-color="#00d5ff"/>
    </linearGradient>
    <linearGradient id="inner_gradation" x1="12.59376" y1="25.1875" x2="12.59376" y2="0" gradientUnits="userSpaceOnUse">
      <stop offset=".13825" stop-color="#0063fd"/>
      <stop offset=".968" stop-color="#00cafe"/>
    </linearGradient>
  </defs>
  <g>
    <path d="M38.31299,26.75781c.01855-.26562.03174-.65332.03174-.99707v-4.67969h.69922v2.43066h.01562c.24707-.43555.69482-.70898,1.31885-.70898.96045,0,1.63574.79883,1.63232,1.96973,0,1.38672-.87891,2.07324-1.74121,2.07324-.55762,0-1.00391-.21875-1.2959-.72363h-.01855l-.03564.63574h-.60645ZM39.04395,25.20801c0,.08691.01025.1748.0293.25488.13184.48828.54639.82324,1.0542.82324.74023,0,1.1748-.59863,1.1748-1.4873,0-.77734-.40186-1.44238-1.15381-1.44238-.47656,0-.92334.33398-1.06445.86426-.02148.08594-.04004.18066-.04004.29297v.69434Z" style="fill: #fff;"/>
    <path d="M43.15186,22.89062l.84521,2.28613c.09082.25586.18555.55859.24854.78906h.01953c.06934-.22754.15479-.52441.24707-.80469l.76514-2.27051h.74609l-1.05811,2.75488c-.50146,1.3291-.8457,2.00586-1.32471,2.4248-.34766.30078-.69043.4209-.8623.45215l-.1748-.58789c.17676-.05566.40527-.16602.61621-.34375.18945-.15332.4248-.42578.58838-.7832.03564-.07422.0542-.12598.0542-.16992,0-.03906-.01123-.09473-.04883-.18066l-1.42627-3.56641h.76465Z" style="fill: #fff;"/>
    <path d="M52.14941,26.58496c-.25098.12695-.76758.25684-1.42383.25684-1.51855,0-2.65723-.96094-2.65723-2.72949,0-1.69141,1.14062-2.82715,2.81348-2.82715.66602,0,1.0957.14062,1.27832.23633l-.1709.56738c-.26172-.125-.63672-.22266-1.08398-.22266-1.26562,0-2.10254.80859-2.10254,2.22363,0,1.31836.75977,2.16113,2.06543,2.16113.42773,0,.85938-.08594,1.1416-.2207l.13965.55469Z" style="fill: #fff;"/>
    <path d="M53.25586,22.89062l.84473,2.28613c.09082.25586.18555.55859.24902.78906h.01953c.06934-.22754.1543-.52441.24707-.80469l.76465-2.27051h.74609l-1.05762,2.75488c-.50098,1.3291-.8457,2.00586-1.32422,2.4248-.34766.30078-.69043.4209-.8623.45215l-.1748-.58789c.17676-.05566.40527-.16602.61621-.34375.18945-.15332.4248-.42578.58789-.7832.03516-.07422.05469-.12598.05469-.16992,0-.03906-.01172-.09473-.0498-.18066l-1.42578-3.56641h.76465Z" style="fill: #fff;"/>
    <path d="M56.73633,26.75781c.01855-.26562.03223-.65332.03223-.99707v-4.67969h.69824v2.43066h.0166c.24707-.43555.69434-.70898,1.31836-.70898.96094,0,1.63574.79883,1.63184,1.96973,0,1.38672-.87793,2.07324-1.74121,2.07324-.55762,0-1.00391-.21875-1.29492-.72363h-.01953l-.03516.63574h-.60645ZM57.4668,25.20801c0,.08691.01074.1748.0293.25488.13184.48828.54688.82324,1.05469.82324.74023,0,1.1748-.59863,1.1748-1.4873,0-.77734-.40234-1.44238-1.1543-1.44238-.47656,0-.92285.33398-1.06348.86426-.02246.08594-.04102.18066-.04102.29297v.69434Z" style="fill: #fff;"/>
    <path d="M64.82129,24.78711c0,1.43262-.99316,2.05859-1.92285,2.05859-1.04883,0-1.85938-.76465-1.85938-1.99219,0-1.29395.85156-2.05078,1.9209-2.05078,1.11133,0,1.86133.80664,1.86133,1.98438ZM61.75488,24.83203c0,.84863.48633,1.4873,1.17285,1.4873.67383,0,1.17773-.63086,1.17773-1.50781,0-.6543-.3291-1.48145-1.16504-1.48145-.82617,0-1.18555.76855-1.18555,1.50195Z" style="fill: #fff;"/>
    <path d="M65.27246,26.34766l1.74902-2.27246c.17285-.21582.32812-.39941.50781-.60547v-.0166h-2.10059v-.5625h2.95312l-.00391.43945-1.72852,2.24805c-.16504.20898-.32422.40723-.49707.60059v.0166h2.25879v.5625h-3.13867v-.41016Z" style="fill: #fff;"/>
    <path d="M72.37012,25.69922c0,.40625.0127.75293.03223,1.05859h-.62207l-.03711-.63281h-.01953c-.17871.31152-.58691.7207-1.28027.7207-.60449,0-1.33105-.33887-1.33105-1.69434v-2.26074h.69922v2.13672c0,.73633.22949,1.23828.86426,1.23828.47168,0,.80078-.33008.93066-.64551.03613-.10156.06348-.22656.06348-.36035v-2.36914h.7002v2.80859Z" style="fill: #fff;"/>
  </g>
  <g>
    <path d="M38.83252,17.89453l-3.07129-14.15137h3.25781l.95654,5.77051c.27051,1.66504.51318,3.43848.72363,4.95654h.04639c.21875-1.6001.54736-3.24854.88525-4.98682l1.15186-5.74023h3.04883l1.07275,5.85791c.28906,1.63281.52881,3.16162.72559,4.81689h.04395c.20654-1.65918.46875-3.26416.74268-4.94092l1.00879-5.73389h3.08252l-3.30029,14.15137h-3.27441l-1.09375-5.6543c-.26709-1.38623-.48535-2.80322-.66602-4.44531h-.04199c-.24268,1.62988-.47266,3.04199-.79688,4.45801l-1.23193,5.6416h-3.27002Z" style="fill: #fff;"/>
    <path d="M56.37793,13.76904c.07715,1.40869,1.27246,2.02783,2.68066,2.02783.99121,0,1.81348-.15186,2.56738-.40967l.40918,2.104c-.9541.38867-2.17578.5957-3.45117.5957-3.27734,0-5.13867-1.97363-5.13867-5.17822,0-2.86475,1.68066-5.50293,4.86035-5.50293,2.99414,0,4.26172,2.33545,4.26172,5.04834,0,.60986-.05078,1.06152-.10449,1.31494h-6.08496ZM59.7373,11.65918c.00684-.93408-.33887-2.16406-1.60156-2.16406-1.21387,0-1.70605,1.25781-1.77441,2.16406h3.37598Z" style="fill: #fff;"/>
    <path d="M64.27148,17.89453c.04199-.74805.08398-1.95215.08398-3.05908V3.10059h3.05859v5.68945h.04199c.57617-.84229,1.51758-1.38428,2.81348-1.38428,2.3252,0,3.85742,2.10645,3.83984,5.13965,0,3.6709-2.06934,5.56104-4.29492,5.56104-1.09668,0-2.08691-.41602-2.75488-1.57617h-.0459l-.13965,1.36426h-2.60254ZM67.41406,13.73877c0,.2207.02832.42725.07129.59033.2168.81641.84766,1.34424,1.59961,1.34424,1.22559,0,1.93457-1.08496,1.93457-2.96924,0-1.65088-.62305-2.87695-1.93359-2.87695-.74512,0-1.41016.58496-1.5957,1.38672-.04297.17773-.07617.4043-.07617.604v1.9209Z" style="fill: #fff;"/>
    <path d="M79.13574,3.74316v8.45557c0,2.33447.84082,3.39893,2.19824,3.39893,1.41211,0,2.23047-1.00049,2.23047-3.39893V3.74316h3.06641v8.17188c0,4.1499-1.95898,6.19141-5.37012,6.19141-3.3877,0-5.19238-2.00098-5.19238-6.20947V3.74316h3.06738Z" style="fill: #fff;"/>
    <path d="M92.3418,3.74316v14.15137h-3.06641V3.74316h3.06641Z" style="fill: #fff;"/>
  </g>
  <rect x="0" y="0" width="30" height="30" rx="6.84241" ry="6.84241" style="fill: url(#outer_gradation);"/>
  <path d="M7.54224,22.45776h0c2.61861-.89591,4.19462.014,4.72803,2.72973h0c1.81982-2.08518,3.63964-2.08518,5.45946,0h0c.53342-2.71573,2.10943-3.62564,4.72804-2.72973h0c-.89591-2.61861.014-4.19462,2.72974-4.72803h0c-2.08518-1.81983-2.08518-3.63965,0-5.45947h0c-2.71573-.53342-3.62564-2.10943-2.72973-4.72803h0s0,0,0,0h0S14.91554,0,14.91554,0H6.84242C3.06346,0,0,3.06345,0,6.84241v8.07313l7.54223,7.54223h0s0,0,0,0Z" style="fill: url(#inner_gradation);"/>
  <path d="M24.75693,12.02168l-8.58058,2.29916,6.28141-6.28142c.1373-.13729.13729-.35989,0-.49719-.13729-.13729-.35989-.13729-.49719,0l-6.28141,6.28141,2.29916-8.58057c.05025-.18755-.06105-.38032-.24859-.43057-.18755-.05025-.38032.06105-.43057.24859l-2.29916,8.58057-2.29916-8.58057c-.05025-.18755-.24303-.29885-.43057-.24859s-.29885.24303-.24859.43057l2.29916,8.58058-6.28142-6.28142c-.13729-.13729-.35989-.13729-.49719,0-.13729.13729-.13729.35989,0,.49719l6.28142,6.28141-8.58057-2.29916c-.18755-.05025-.38032.06105-.43057.24859-.05025.18755.06104.38032.24859.43057l8.58057,2.29916-8.58057,2.29916c-.18755.05025-.29885.24303-.24859.43057s.24303.29885.43057.24859l8.58057-2.29916-6.28141,6.28142c-.1373.13729-.1373.35989,0,.49718s.35989.1373.49719,0l6.28141-6.28142-2.29916,8.58057c-.05025.18755.06104.38032.24859.43057.18755.05025.38032-.06105.43058-.24859l2.29916-8.58057,2.29916,8.58057c.05025.18755.24303.29885.43057.24859s.29884-.24303.24859-.43057l-2.29916-8.58058,6.28142,6.28142c.13729.13729.35989.1373.49719,0,.13729-.1373.13729-.35989,0-.49719l-6.28142-6.28141,8.58057,2.29916c.18755.05025.38032-.06105.43058-.24859.05025-.18755-.06105-.38032-.24859-.43057l-8.58057-2.29916,8.58057-2.29916c.18755-.05025.29884-.24303.24859-.43057s-.24303-.29885-.43057-.24859Z"/>
  <path d="M16.05879,18.95139l-.36198-.27597c-.48191-.3673-.91169-.36727-1.39358,0l-.36199.27597-.17551-.42c-.23366-.55904-.60585-.77388-1.20688-.69677l-.45146.05796.05798-.45144c.0772-.60099-.13769-.97321-.69676-1.20684l-.41998-.17552.27595-.36198c.36736-.48191.36736-.91169,0-1.39358l-.27595-.36198.41997-.17552c.55907-.23366.77398-.60586.69677-1.20687l-.05798-.45147.45147.05798c.60087.07716.97321-.13769,1.20687-.69677l.17551-.41997.36199.27595c.48187.36733.91164.36736,1.39358,0l.36198-.27595.17552.41998c.23363.55904.60585.77382,1.20684.69676l.45144-.05798-.05796.45146c-.07719.60102.1377.97322.69677,1.20688l.42.17551-.27597.36199c-.36733.48188-.36733.91166,0,1.39358l.27597.36198-.42.17552c-.55907.23363-.77396.60582-.69677,1.20684l.05796.45144-.45144-.05796c-.60107-.07713-.97321.1377-1.20684.69677l-.17552.42ZM15.00001,17.6962c.25967,0,.51933.06612.77559.19838.31159-.48532.7673-.74839,1.34336-.77562.02718-.57612.29025-1.03177.77562-1.34336-.26453-.51255-.26453-1.03865,0-1.55119-.48537-.31161-.74841-.76724-.77562-1.34338-.57612-.02718-1.03177-.29024-1.34336-.77561-.51255.2645-1.03867.26452-1.5512.00001-.31158.48532-.7673.74837-1.34338.77558-.02717.57615-.29022,1.03179-.77558,1.34339.26453.51254.26453,1.03864-.00001,1.55119.48537.31162.74843.76724.77561,1.34336.57614.02721,1.03177.29025,1.34338.77562.25628-.13227.51591-.19838.77559-.19838Z"/>
  <path d="M12.97344,22.5632l-.13823-.70378c-.15654-.79697-.45447-1.32726-.88553-1.57611s-1.03924-.24173-1.80771.02117l-.67862.2322.23217-.67863c.26291-.76847.27004-1.37667.02117-1.80774-.24888-.43104-.77916-.72899-1.57612-.88552l-.70378-.13824.54038-.47161c.61193-.53407.92221-1.05721.92221-1.55495s-.31028-1.02088-.92221-1.55494l-.54038-.47161.70378-.13823c.79697-.15654,1.32726-.45447,1.57612-.88552.24887-.43106.24174-1.03927-.02117-1.80774l-.23217-.67861.67861.23217c.7685.26294,1.3767.27001,1.80772.02117.43106-.24887.72899-.77916.88553-1.57612l.13823-.70378.47161.54038c.53405.61193,1.05721.92221,1.55494.92221s1.02088-.31028,1.55495-.92221l.47161-.54038.13824.70378c.15653.79697.45447,1.32726.88552,1.57612.4311.24888,1.0393.24173,1.80774-.02117l.67863-.23217-.2322.67862c-.2629.76846-.27005,1.37665-.02117,1.80771.24885.43106.77914.72899,1.57611.88553l.70378.13823-.54036.47161c-.61192.53405-.92219,1.05721-.92219,1.55494s.31028,1.02091.92219,1.55495l.54036.47161-.70378.13824c-.79697.15653-1.32726.45447-1.57611.88554-.24888.43104-.24173,1.03927.02117,1.80771l.2322.67863-.67863-.2322c-.76844-.2629-1.3767-.27002-1.80771-.02117-.43107.24885-.72902.77914-.88554,1.57611l-.13824.70378-.47161-.54036c-.53404-.61192-1.05721-.92219-1.55495-.92219s-1.02088.31028-1.55494.92219l-.47161.54036ZM14.99999,20.39752c.55359,0,1.10211.23804,1.6362.7089.22714-.67483.58316-1.15525,1.06258-1.43206.47939-.27678,1.07346-.34492,1.77143-.20416-.14073-.69798-.07261-1.29201.20416-1.77143.2768-.47942.75723-.83545,1.43206-1.06258-.47087-.5341-.7089-1.08261-.7089-1.6362s.23804-1.10209.7089-1.63619c-.67483-.22714-1.15525-.58315-1.43206-1.06256-.27678-.47942-.34487-1.07347-.20416-1.77145-.69798.14076-1.29195.07264-1.77146-.20418-.47942-.27679-.83542-.75721-1.06256-1.43203-.5341.47085-1.08261.7089-1.6362.7089s-1.10209-.23805-1.63619-.7089c-.22712.67482-.58313,1.15522-1.06256,1.43203-.47942.27678-1.07347.34484-1.77145.20419.14072.69798.07261,1.29202-.20418,1.77145-.27679.47941-.75721.83542-1.43203,1.06254.47085.5341.7089,1.08261.7089,1.63619s-.23805,1.10211-.7089,1.6362c.67482.22714,1.15522.58313,1.43203,1.06256.27679.47942.3449,1.07348.20418,1.77146.69808-.14076,1.29198-.07264,1.77145.20416.47941.2768.83542.75723,1.06256,1.43206.5341-.47087,1.08261-.7089,1.63619-.7089Z"/>
</svg>
